<mxfile host="Electron" modified="2024-06-09T15:30:50.523Z" agent="Mozilla/5.0 (Windows NT 10.0; Win64; x64) AppleWebKit/537.36 (KHTML, like Gecko) draw.io/24.1.0 Chrome/120.0.6099.109 Electron/28.1.0 Safari/537.36" etag="7fonVkmSsn7qGLklVhVz" version="24.1.0" type="device">
  <diagram name="PÃ¡gina-1" id="Yooxc6AtOnB_2tu0PM-k">
    <mxGraphModel dx="2427" dy="1929" grid="1" gridSize="10" guides="1" tooltips="1" connect="1" arrows="1" fold="1" page="1" pageScale="1" pageWidth="827" pageHeight="1169" math="0" shadow="0">
      <root>
        <mxCell id="0" />
        <mxCell id="1" parent="0" />
        <mxCell id="ro6CvCbOvFzQMxiDiREt-2" value="&lt;span style=&quot;color: rgba(0, 0, 0, 0); font-family: monospace; font-size: 0px; font-weight: 400; text-wrap: nowrap;&quot;&gt;%3CmxGraphModel%3E%3Croot%3E%3CmxCell%20id%3D%220%22%2F%3E%3CmxCell%20id%3D%221%22%20parent%3D%220%22%2F%3E%3CmxCell%20id%3D%222%22%20value%3D%22RESOLUTOR%22%20style%3D%22swimlane%3BfontStyle%3D0%3Balign%3Dcenter%3BverticalAlign%3Dtop%3BchildLayout%3DstackLayout%3Bhorizontal%3D1%3BstartSize%3D26%3BhorizontalStack%3D0%3BresizeParent%3D1%3BresizeLast%3D0%3Bcollapsible%3D1%3BmarginBottom%3D0%3Brounded%3D0%3Bshadow%3D0%3BstrokeWidth%3D1%3B%22%20vertex%3D%221%22%20parent%3D%221%22%3E%3CmxGeometry%20x%3D%2290%22%20y%3D%22420%22%20width%3D%2296%22%20height%3D%2280%22%20as%3D%22geometry%22%3E%3CmxRectangle%20x%3D%22550%22%20y%3D%22140%22%20width%3D%22160%22%20height%3D%2226%22%20as%3D%22alternateBounds%22%2F%3E%3C%2FmxGeometry%3E%3C%2FmxCell%3E%3CmxCell%20id%3D%223%22%20value%3D%22ID_Resolutor%22%20style%3D%22text%3Balign%3Dleft%3BverticalAlign%3Dtop%3BspacingLeft%3D4%3BspacingRight%3D4%3Boverflow%3Dhidden%3Brotatable%3D0%3Bpoints%3D%5B%5B0%2C0.5%5D%2C%5B1%2C0.5%5D%5D%3BportConstraint%3Deastwest%3B%22%20vertex%3D%221%22%20parent%3D%222%22%3E%3CmxGeometry%20y%3D%2226%22%20width%3D%2296%22%20height%3D%2226%22%20as%3D%22geometry%22%2F%3E%3C%2FmxCell%3E%3CmxCell%20id%3D%224%22%20value%3D%22%22%20style%3D%22line%3Bhtml%3D1%3BstrokeWidth%3D1%3Balign%3Dleft%3BverticalAlign%3Dmiddle%3BspacingTop%3D-1%3BspacingLeft%3D3%3BspacingRight%3D3%3Brotatable%3D0%3BlabelPosition%3Dright%3Bpoints%3D%5B%5D%3BportConstraint%3Deastwest%3B%22%20vertex%3D%221%22%20parent%3D%222%22%3E%3CmxGeometry%20y%3D%2252%22%20width%3D%2296%22%20height%3D%2210%22%20as%3D%22geometry%22%2F%3E%3C%2FmxCell%3E%3CmxCell%20id%3D%225%22%20value%3D%22AREA%22%20style%3D%22swimlane%3BfontStyle%3D0%3Balign%3Dcenter%3BverticalAlign%3Dtop%3BchildLayout%3DstackLayout%3Bhorizontal%3D1%3BstartSize%3D26%3BhorizontalStack%3D0%3BresizeParent%3D1%3BresizeLast%3D0%3Bcollapsible%3D1%3BmarginBottom%3D0%3Brounded%3D0%3Bshadow%3D0%3BstrokeWidth%3D1%3B%22%20vertex%3D%221%22%20parent%3D%221%22%3E%3CmxGeometry%20x%3D%2210%22%20y%3D%2266%22%20width%3D%2290%22%20height%3D%2290%22%20as%3D%22geometry%22%3E%3CmxRectangle%20x%3D%22550%22%20y%3D%22140%22%20width%3D%22160%22%20height%3D%2226%22%20as%3D%22alternateBounds%22%2F%3E%3C%2FmxGeometry%3E%3C%2FmxCell%3E%3CmxCell%20id%3D%226%22%20value%3D%22ID_Area%26%2310%3BNombre_Area%26%2310%3B%22%20style%3D%22text%3Balign%3Dleft%3BverticalAlign%3Dtop%3BspacingLeft%3D4%3BspacingRight%3D4%3Boverflow%3Dhidden%3Brotatable%3D0%3Bpoints%3D%5B%5B0%2C0.5%5D%2C%5B1%2C0.5%5D%5D%3BportConstraint%3Deastwest%3B%22%20vertex%3D%221%22%20parent%3D%225%22%3E%3CmxGeometry%20y%3D%2226%22%20width%3D%2290%22%20height%3D%2244%22%20as%3D%22geometry%22%2F%3E%3C%2FmxCell%3E%3CmxCell%20id%3D%227%22%20value%3D%22%22%20style%3D%22line%3Bhtml%3D1%3BstrokeWidth%3D1%3Balign%3Dleft%3BverticalAlign%3Dmiddle%3BspacingTop%3D-1%3BspacingLeft%3D3%3BspacingRight%3D3%3Brotatable%3D0%3BlabelPosition%3Dright%3Bpoints%3D%5B%5D%3BportConstraint%3Deastwest%3B%22%20vertex%3D%221%22%20parent%3D%225%22%3E%3CmxGeometry%20y%3D%2270%22%20width%3D%2290%22%20height%3D%228%22%20as%3D%22geometry%22%2F%3E%3C%2FmxCell%3E%3CmxCell%20id%3D%228%22%20value%3D%22USUARIO%22%20style%3D%22swimlane%3BfontStyle%3D0%3Balign%3Dcenter%3BverticalAlign%3Dtop%3BchildLayout%3DstackLayout%3Bhorizontal%3D1%3BstartSize%3D26%3BhorizontalStack%3D0%3BresizeParent%3D1%3BresizeLast%3D0%3Bcollapsible%3D1%3BmarginBottom%3D0%3Brounded%3D0%3Bshadow%3D0%3BstrokeWidth%3D1%3B%22%20vertex%3D%221%22%20parent%3D%221%22%3E%3CmxGeometry%20x%3D%22140%22%20y%3D%22180%22%20width%3D%22111%22%20height%3D%22174%22%20as%3D%22geometry%22%3E%3CmxRectangle%20x%3D%22550%22%20y%3D%22140%22%20width%3D%22160%22%20height%3D%2226%22%20as%3D%22alternateBounds%22%2F%3E%3C%2FmxGeometry%3E%3C%2FmxCell%3E%3CmxCell%20id%3D%229%22%20value%3D%22ID_Usuario%26%2310%3BNombre%26%2310%3BClave%26%2310%3BActivo%26%2310%3BMail%26%2310%3B%22%20style%3D%22text%3Balign%3Dleft%3BverticalAlign%3Dtop%3BspacingLeft%3D4%3BspacingRight%3D4%3Boverflow%3Dhidden%3Brotatable%3D0%3Bpoints%3D%5B%5B0%2C0.5%5D%2C%5B1%2C0.5%5D%5D%3BportConstraint%3Deastwest%3B%22%20vertex%3D%221%22%20parent%3D%228%22%3E%3CmxGeometry%20y%3D%2226%22%20width%3D%22111%22%20height%3D%2284%22%20as%3D%22geometry%22%2F%3E%3C%2FmxCell%3E%3CmxCell%20id%3D%2210%22%20value%3D%22%22%20style%3D%22line%3Bhtml%3D1%3BstrokeWidth%3D1%3Balign%3Dleft%3BverticalAlign%3Dmiddle%3BspacingTop%3D-1%3BspacingLeft%3D3%3BspacingRight%3D3%3Brotatable%3D0%3BlabelPosition%3Dright%3Bpoints%3D%5B%5D%3BportConstraint%3Deastwest%3B%22%20vertex%3D%221%22%20parent%3D%228%22%3E%3CmxGeometry%20y%3D%22110%22%20width%3D%22111%22%20height%3D%2210%22%20as%3D%22geometry%22%2F%3E%3C%2FmxCell%3E%3CmxCell%20id%3D%2211%22%20value%3D%22Crear()%3B%26%2310%3BModificar()%3B%C2%A0%26%2310%3BLogin()%3B%C2%A0%22%20style%3D%22text%3Balign%3Dleft%3BverticalAlign%3Dtop%3BspacingLeft%3D4%3BspacingRight%3D4%3Boverflow%3Dhidden%3Brotatable%3D0%3Bpoints%3D%5B%5B0%2C0.5%5D%2C%5B1%2C0.5%5D%5D%3BportConstraint%3Deastwest%3Brounded%3D0%3Bshadow%3D0%3Bhtml%3D0%3B%22%20vertex%3D%221%22%20parent%3D%228%22%3E%3CmxGeometry%20y%3D%22120%22%20width%3D%22111%22%20height%3D%2254%22%20as%3D%22geometry%22%2F%3E%3C%2FmxCell%3E%3CmxCell%20id%3D%2212%22%20value%3D%22EMPLEADO%22%20style%3D%22swimlane%3BfontStyle%3D0%3Balign%3Dcenter%3BverticalAlign%3Dtop%3BchildLayout%3DstackLayout%3Bhorizontal%3D1%3BstartSize%3D26%3BhorizontalStack%3D0%3BresizeParent%3D1%3BresizeLast%3D0%3Bcollapsible%3D1%3BmarginBottom%3D0%3Brounded%3D0%3Bshadow%3D0%3BstrokeWidth%3D1%3B%22%20vertex%3D%221%22%20parent%3D%221%22%3E%3CmxGeometry%20x%3D%22140%22%20width%3D%22111%22%20height%3D%22140%22%20as%3D%22geometry%22%3E%3CmxRectangle%20x%3D%22550%22%20y%3D%22140%22%20width%3D%22160%22%20height%3D%2226%22%20as%3D%22alternateBounds%22%2F%3E%3C%2FmxGeometry%3E%3C%2FmxCell%3E%3CmxCell%20id%3D%2213%22%20value%3D%22Legajo%26%2310%3BNombre%26%2310%3BApellido%26%2310%3BFecha_ingreso%26%2310%3BFecha_Egreso%26%2310%3BId_Area%22%20style%3D%22text%3Balign%3Dleft%3BverticalAlign%3Dtop%3BspacingLeft%3D4%3BspacingRight%3D4%3Boverflow%3Dhidden%3Brotatable%3D0%3Bpoints%3D%5B%5B0%2C0.5%5D%2C%5B1%2C0.5%5D%5D%3BportConstraint%3Deastwest%3B%22%20vertex%3D%221%22%20parent%3D%2212%22%3E%3CmxGeometry%20y%3D%2226%22%20width%3D%22111%22%20height%3D%2294%22%20as%3D%22geometry%22%2F%3E%3C%2FmxCell%3E%3CmxCell%20id%3D%2214%22%20value%3D%22%22%20style%3D%22line%3Bhtml%3D1%3BstrokeWidth%3D1%3Balign%3Dleft%3BverticalAlign%3Dmiddle%3BspacingTop%3D-1%3BspacingLeft%3D3%3BspacingRight%3D3%3Brotatable%3D0%3BlabelPosition%3Dright%3Bpoints%3D%5B%5D%3BportConstraint%3Deastwest%3B%22%20vertex%3D%221%22%20parent%3D%2212%22%3E%3CmxGeometry%20y%3D%22120%22%20width%3D%22111%22%20height%3D%228%22%20as%3D%22geometry%22%2F%3E%3C%2FmxCell%3E%3CmxCell%20id%3D%2215%22%20value%3D%22%22%20style%3D%22endArrow%3Dblock%3BendSize%3D16%3BendFill%3D0%3Bhtml%3D1%3Brounded%3D0%3B%22%20edge%3D%221%22%20source%3D%228%22%20target%3D%2212%22%20parent%3D%221%22%3E%3CmxGeometry%20width%3D%22160%22%20relative%3D%221%22%20as%3D%22geometry%22%3E%3CmxPoint%20x%3D%22349%22%20y%3D%22270%22%20as%3D%22sourcePoint%22%2F%3E%3CmxPoint%20x%3D%22509%22%20y%3D%22270%22%20as%3D%22targetPoint%22%2F%3E%3C%2FmxGeometry%3E%3C%2FmxCell%3E%3CmxCell%20id%3D%2216%22%20value%3D%221...1%22%20style%3D%22html%3D1%3BverticalAlign%3Dbottom%3BendArrow%3Dblock%3Bcurved%3D0%3Brounded%3D0%3BexitX%3D0.008%3BexitY%3D0.894%3BexitDx%3D0%3BexitDy%3D0%3BexitPerimeter%3D0%3B%22%20edge%3D%221%22%20source%3D%2213%22%20target%3D%225%22%20parent%3D%221%22%3E%3CmxGeometry%20width%3D%2280%22%20relative%3D%221%22%20as%3D%22geometry%22%3E%3CmxPoint%20x%3D%22699%22%20y%3D%22146%22%20as%3D%22sourcePoint%22%2F%3E%3CmxPoint%20x%3D%22769%22%20y%3D%22116%22%20as%3D%22targetPoint%22%2F%3E%3C%2FmxGeometry%3E%3C%2FmxCell%3E%3CmxCell%20id%3D%2217%22%20value%3D%22%22%20style%3D%22endArrow%3Dblock%3BendSize%3D16%3BendFill%3D0%3Bhtml%3D1%3Brounded%3D0%3BexitX%3D0.5%3BexitY%3D0%3BexitDx%3D0%3BexitDy%3D0%3BentryX%3D0.045%3BentryY%3D1.037%3BentryDx%3D0%3BentryDy%3D0%3BentryPerimeter%3D0%3B%22%20edge%3D%221%22%20source%3D%222%22%20target%3D%2211%22%20parent%3D%221%22%3E%3CmxGeometry%20width%3D%22160%22%20relative%3D%221%22%20as%3D%22geometry%22%3E%3CmxPoint%20x%3D%22247.78571428571422%22%20y%3D%22440%22%20as%3D%22sourcePoint%22%2F%3E%3CmxPoint%20x%3D%22250%22%20y%3D%22373%22%20as%3D%22targetPoint%22%2F%3E%3CArray%20as%3D%22points%22%3E%3CmxPoint%20x%3D%22120%22%20y%3D%22400%22%2F%3E%3C%2FArray%3E%3C%2FmxGeometry%3E%3C%2FmxCell%3E%3C%2Froot%3E%3C%2FmxGraphModel%3E&lt;/span&gt;" style="shape=folder;fontStyle=1;spacingTop=10;tabWidth=130;tabHeight=31;tabPosition=left;html=1;whiteSpace=wrap;align=left;" parent="1" vertex="1">
          <mxGeometry x="-90" y="-201" width="340" height="461" as="geometry" />
        </mxCell>
        <mxCell id="ro6CvCbOvFzQMxiDiREt-3" value="" style="shape=folder;fontStyle=1;spacingTop=10;tabWidth=140;tabHeight=31;tabPosition=left;html=1;whiteSpace=wrap;" parent="1" vertex="1">
          <mxGeometry x="310" y="-201" width="600" height="441" as="geometry" />
        </mxCell>
        <mxCell id="ro6CvCbOvFzQMxiDiREt-4" value="" style="shape=folder;fontStyle=1;spacingTop=10;tabWidth=140;tabHeight=25;tabPosition=left;html=1;whiteSpace=wrap;" parent="1" vertex="1">
          <mxGeometry x="90" y="280" width="450" height="320" as="geometry" />
        </mxCell>
        <mxCell id="ro6CvCbOvFzQMxiDiREt-5" value="ACCESO" style="text;strokeColor=none;align=center;fillColor=none;html=1;verticalAlign=middle;whiteSpace=wrap;rounded=0;" parent="1" vertex="1">
          <mxGeometry x="-80" y="-201" width="60" height="30" as="geometry" />
        </mxCell>
        <mxCell id="ro6CvCbOvFzQMxiDiREt-7" value="INCIDENTES" style="text;strokeColor=none;align=center;fillColor=none;html=1;verticalAlign=middle;whiteSpace=wrap;rounded=0;" parent="1" vertex="1">
          <mxGeometry x="353" y="-201" width="60" height="30" as="geometry" />
        </mxCell>
        <mxCell id="ro6CvCbOvFzQMxiDiREt-8" value="SOLUCIONES" style="text;strokeColor=none;align=center;fillColor=none;html=1;verticalAlign=middle;whiteSpace=wrap;rounded=0;" parent="1" vertex="1">
          <mxGeometry x="120" y="280" width="60" height="30" as="geometry" />
        </mxCell>
        <mxCell id="ro6CvCbOvFzQMxiDiREt-60" value="Use" style="endArrow=open;endSize=12;dashed=1;html=1;rounded=0;" parent="1" source="ro6CvCbOvFzQMxiDiREt-3" target="ro6CvCbOvFzQMxiDiREt-2" edge="1">
          <mxGeometry width="160" relative="1" as="geometry">
            <mxPoint x="330" y="60" as="sourcePoint" />
            <mxPoint x="490" y="60" as="targetPoint" />
          </mxGeometry>
        </mxCell>
        <mxCell id="ro6CvCbOvFzQMxiDiREt-63" value="Use" style="endArrow=open;endSize=12;dashed=1;html=1;rounded=0;entryX=0.679;entryY=0.093;entryDx=0;entryDy=0;entryPerimeter=0;" parent="1" source="ro6CvCbOvFzQMxiDiREt-3" target="ro6CvCbOvFzQMxiDiREt-4" edge="1">
          <mxGeometry x="-0.021" width="160" relative="1" as="geometry">
            <mxPoint x="380" y="19" as="sourcePoint" />
            <mxPoint x="572" y="245" as="targetPoint" />
            <mxPoint as="offset" />
          </mxGeometry>
        </mxCell>
        <mxCell id="Y1zFI3xSM8osKUklgzBH-13" value="" style="endArrow=block;endSize=16;endFill=0;html=1;rounded=0;" parent="1" source="42WMQvsDHD2JbAyiWGdz-10" target="42WMQvsDHD2JbAyiWGdz-6" edge="1">
          <mxGeometry width="160" relative="1" as="geometry">
            <mxPoint x="380" y="333.9285714285711" as="sourcePoint" />
            <mxPoint x="310" y="350.5" as="targetPoint" />
            <Array as="points">
              <mxPoint x="330" y="340" />
            </Array>
          </mxGeometry>
        </mxCell>
        <mxCell id="Y1zFI3xSM8osKUklgzBH-16" value="" style="endArrow=block;endSize=16;endFill=0;html=1;rounded=0;exitX=0;exitY=0.5;exitDx=0;exitDy=0;" parent="1" source="42WMQvsDHD2JbAyiWGdz-14" target="42WMQvsDHD2JbAyiWGdz-8" edge="1">
          <mxGeometry width="160" relative="1" as="geometry">
            <mxPoint x="378.02" y="412.99800000000005" as="sourcePoint" />
            <mxPoint x="306.0400000000004" y="422.96000000000004" as="targetPoint" />
            <Array as="points" />
          </mxGeometry>
        </mxCell>
        <mxCell id="Y1zFI3xSM8osKUklgzBH-21" value="ERROR" style="swimlane;fontStyle=0;align=center;verticalAlign=top;childLayout=stackLayout;horizontal=1;startSize=26;horizontalStack=0;resizeParent=1;resizeLast=0;collapsible=1;marginBottom=0;rounded=0;shadow=0;strokeWidth=1;" parent="1" vertex="1">
          <mxGeometry x="570" y="-44" width="140" height="184" as="geometry">
            <mxRectangle x="130" y="380" width="160" height="26" as="alternateBounds" />
          </mxGeometry>
        </mxCell>
        <mxCell id="Y1zFI3xSM8osKUklgzBH-22" value="Nro_Error&#xa;Pantalla&#xa;Aplicacion&#xa;Modulo&#xa;Proceso&#xa;Descripcion_Corta&#xa;Pasos_Reproducir&#xa;" style="text;align=left;verticalAlign=top;spacingLeft=4;spacingRight=4;overflow=hidden;rotatable=0;points=[[0,0.5],[1,0.5]];portConstraint=eastwest;" parent="Y1zFI3xSM8osKUklgzBH-21" vertex="1">
          <mxGeometry y="26" width="140" height="114" as="geometry" />
        </mxCell>
        <mxCell id="Y1zFI3xSM8osKUklgzBH-23" value="" style="line;html=1;strokeWidth=1;align=left;verticalAlign=middle;spacingTop=-1;spacingLeft=3;spacingRight=3;rotatable=0;labelPosition=right;points=[];portConstraint=eastwest;" parent="Y1zFI3xSM8osKUklgzBH-21" vertex="1">
          <mxGeometry y="140" width="140" height="8" as="geometry" />
        </mxCell>
        <mxCell id="Y1zFI3xSM8osKUklgzBH-25" value="ESTADOS" style="swimlane;fontStyle=0;align=center;verticalAlign=top;childLayout=stackLayout;horizontal=1;startSize=26;horizontalStack=0;resizeParent=1;resizeLast=0;collapsible=1;marginBottom=0;rounded=0;shadow=0;strokeWidth=1;" parent="1" vertex="1">
          <mxGeometry x="504" y="150" width="120" height="90" as="geometry">
            <mxRectangle x="130" y="380" width="160" height="26" as="alternateBounds" />
          </mxGeometry>
        </mxCell>
        <mxCell id="Y1zFI3xSM8osKUklgzBH-26" value="Nro_Estado&#xa;Nombre_Estado&#xa;" style="text;align=left;verticalAlign=top;spacingLeft=4;spacingRight=4;overflow=hidden;rotatable=0;points=[[0,0.5],[1,0.5]];portConstraint=eastwest;" parent="Y1zFI3xSM8osKUklgzBH-25" vertex="1">
          <mxGeometry y="26" width="120" height="44" as="geometry" />
        </mxCell>
        <mxCell id="Y1zFI3xSM8osKUklgzBH-27" value="" style="line;html=1;strokeWidth=1;align=left;verticalAlign=middle;spacingTop=-1;spacingLeft=3;spacingRight=3;rotatable=0;labelPosition=right;points=[];portConstraint=eastwest;" parent="Y1zFI3xSM8osKUklgzBH-25" vertex="1">
          <mxGeometry y="70" width="120" height="8" as="geometry" />
        </mxCell>
        <mxCell id="Y1zFI3xSM8osKUklgzBH-28" value="PRIORIDAD" style="swimlane;fontStyle=0;align=center;verticalAlign=top;childLayout=stackLayout;horizontal=1;startSize=26;horizontalStack=0;resizeParent=1;resizeLast=0;collapsible=1;marginBottom=0;rounded=0;shadow=0;strokeWidth=1;" parent="1" vertex="1">
          <mxGeometry x="550" y="-160" width="120" height="80" as="geometry">
            <mxRectangle x="130" y="380" width="160" height="26" as="alternateBounds" />
          </mxGeometry>
        </mxCell>
        <mxCell id="Y1zFI3xSM8osKUklgzBH-29" value="Nro_Prioridad&#xa;Nombre_Prioridad&#xa;" style="text;align=left;verticalAlign=top;spacingLeft=4;spacingRight=4;overflow=hidden;rotatable=0;points=[[0,0.5],[1,0.5]];portConstraint=eastwest;" parent="Y1zFI3xSM8osKUklgzBH-28" vertex="1">
          <mxGeometry y="26" width="120" height="34" as="geometry" />
        </mxCell>
        <mxCell id="Y1zFI3xSM8osKUklgzBH-30" value="" style="line;html=1;strokeWidth=1;align=left;verticalAlign=middle;spacingTop=-1;spacingLeft=3;spacingRight=3;rotatable=0;labelPosition=right;points=[];portConstraint=eastwest;" parent="Y1zFI3xSM8osKUklgzBH-28" vertex="1">
          <mxGeometry y="60" width="120" height="8" as="geometry" />
        </mxCell>
        <mxCell id="Y1zFI3xSM8osKUklgzBH-31" value="1" style="html=1;verticalAlign=bottom;endArrow=block;curved=0;rounded=0;" parent="1" target="Y1zFI3xSM8osKUklgzBH-25" edge="1">
          <mxGeometry x="-0.081" y="-17" width="80" relative="1" as="geometry">
            <mxPoint x="450" y="130" as="sourcePoint" />
            <mxPoint x="399" y="120" as="targetPoint" />
            <mxPoint as="offset" />
            <Array as="points" />
          </mxGeometry>
        </mxCell>
        <mxCell id="Y1zFI3xSM8osKUklgzBH-32" value="1" style="html=1;verticalAlign=bottom;endArrow=block;curved=0;rounded=0;" parent="1" target="Y1zFI3xSM8osKUklgzBH-28" edge="1">
          <mxGeometry x="0.0414" y="-19" width="80" relative="1" as="geometry">
            <mxPoint x="510" y="-65.4545454545455" as="sourcePoint" />
            <mxPoint x="399" y="120" as="targetPoint" />
            <mxPoint as="offset" />
          </mxGeometry>
        </mxCell>
        <mxCell id="Y1zFI3xSM8osKUklgzBH-33" value="" style="endArrow=block;endSize=16;endFill=0;html=1;rounded=0;" parent="1" source="Y1zFI3xSM8osKUklgzBH-21" edge="1">
          <mxGeometry width="160" relative="1" as="geometry">
            <mxPoint x="549" y="180" as="sourcePoint" />
            <mxPoint x="510" y="-4" as="targetPoint" />
          </mxGeometry>
        </mxCell>
        <mxCell id="Y1zFI3xSM8osKUklgzBH-34" value="APLICACION" style="swimlane;fontStyle=0;align=center;verticalAlign=top;childLayout=stackLayout;horizontal=1;startSize=26;horizontalStack=0;resizeParent=1;resizeLast=0;collapsible=1;marginBottom=0;rounded=0;shadow=0;strokeWidth=1;" parent="1" vertex="1">
          <mxGeometry x="780" y="100" width="120" height="60" as="geometry">
            <mxRectangle x="130" y="380" width="160" height="26" as="alternateBounds" />
          </mxGeometry>
        </mxCell>
        <mxCell id="Y1zFI3xSM8osKUklgzBH-35" value="" style="line;html=1;strokeWidth=1;align=left;verticalAlign=middle;spacingTop=-1;spacingLeft=3;spacingRight=3;rotatable=0;labelPosition=right;points=[];portConstraint=eastwest;" parent="Y1zFI3xSM8osKUklgzBH-34" vertex="1">
          <mxGeometry y="26" width="120" height="8" as="geometry" />
        </mxCell>
        <mxCell id="Y1zFI3xSM8osKUklgzBH-36" value="MODULO" style="swimlane;fontStyle=0;align=center;verticalAlign=top;childLayout=stackLayout;horizontal=1;startSize=26;horizontalStack=0;resizeParent=1;resizeLast=0;collapsible=1;marginBottom=0;rounded=0;shadow=0;strokeWidth=1;" parent="1" vertex="1">
          <mxGeometry x="780" width="120" height="60" as="geometry">
            <mxRectangle x="130" y="380" width="160" height="26" as="alternateBounds" />
          </mxGeometry>
        </mxCell>
        <mxCell id="Y1zFI3xSM8osKUklgzBH-37" value="" style="line;html=1;strokeWidth=1;align=left;verticalAlign=middle;spacingTop=-1;spacingLeft=3;spacingRight=3;rotatable=0;labelPosition=right;points=[];portConstraint=eastwest;" parent="Y1zFI3xSM8osKUklgzBH-36" vertex="1">
          <mxGeometry y="26" width="120" height="8" as="geometry" />
        </mxCell>
        <mxCell id="Y1zFI3xSM8osKUklgzBH-38" value="PROCESO" style="swimlane;fontStyle=0;align=center;verticalAlign=top;childLayout=stackLayout;horizontal=1;startSize=26;horizontalStack=0;resizeParent=1;resizeLast=0;collapsible=1;marginBottom=0;rounded=0;shadow=0;strokeWidth=1;" parent="1" vertex="1">
          <mxGeometry x="770" y="-80" width="120" height="60" as="geometry">
            <mxRectangle x="130" y="380" width="160" height="26" as="alternateBounds" />
          </mxGeometry>
        </mxCell>
        <mxCell id="Y1zFI3xSM8osKUklgzBH-39" value="" style="line;html=1;strokeWidth=1;align=left;verticalAlign=middle;spacingTop=-1;spacingLeft=3;spacingRight=3;rotatable=0;labelPosition=right;points=[];portConstraint=eastwest;" parent="Y1zFI3xSM8osKUklgzBH-38" vertex="1">
          <mxGeometry y="26" width="120" height="8" as="geometry" />
        </mxCell>
        <mxCell id="Y1zFI3xSM8osKUklgzBH-40" value="PANTALLA" style="swimlane;fontStyle=0;align=center;verticalAlign=top;childLayout=stackLayout;horizontal=1;startSize=26;horizontalStack=0;resizeParent=1;resizeLast=0;collapsible=1;marginBottom=0;rounded=0;shadow=0;strokeWidth=1;" parent="1" vertex="1">
          <mxGeometry x="750" y="-160" width="120" height="60" as="geometry">
            <mxRectangle x="130" y="380" width="160" height="26" as="alternateBounds" />
          </mxGeometry>
        </mxCell>
        <mxCell id="Y1zFI3xSM8osKUklgzBH-41" value="" style="line;html=1;strokeWidth=1;align=left;verticalAlign=middle;spacingTop=-1;spacingLeft=3;spacingRight=3;rotatable=0;labelPosition=right;points=[];portConstraint=eastwest;" parent="Y1zFI3xSM8osKUklgzBH-40" vertex="1">
          <mxGeometry y="26" width="120" height="8" as="geometry" />
        </mxCell>
        <mxCell id="Y1zFI3xSM8osKUklgzBH-42" value="" style="endArrow=classic;html=1;rounded=0;" parent="1" source="Y1zFI3xSM8osKUklgzBH-21" target="Y1zFI3xSM8osKUklgzBH-40" edge="1">
          <mxGeometry width="50" height="50" relative="1" as="geometry">
            <mxPoint x="670" y="170" as="sourcePoint" />
            <mxPoint x="720" y="120" as="targetPoint" />
          </mxGeometry>
        </mxCell>
        <mxCell id="Y1zFI3xSM8osKUklgzBH-43" value="1" style="edgeLabel;html=1;align=center;verticalAlign=middle;resizable=0;points=[];" parent="Y1zFI3xSM8osKUklgzBH-42" vertex="1" connectable="0">
          <mxGeometry x="0.1822" y="-1" relative="1" as="geometry">
            <mxPoint y="-1" as="offset" />
          </mxGeometry>
        </mxCell>
        <mxCell id="Y1zFI3xSM8osKUklgzBH-44" value="" style="endArrow=classic;html=1;rounded=0;" parent="1" source="Y1zFI3xSM8osKUklgzBH-21" target="Y1zFI3xSM8osKUklgzBH-38" edge="1">
          <mxGeometry x="0.0526" y="30" width="50" height="50" relative="1" as="geometry">
            <mxPoint x="720" y="161" as="sourcePoint" />
            <mxPoint x="760" y="149" as="targetPoint" />
            <mxPoint as="offset" />
          </mxGeometry>
        </mxCell>
        <mxCell id="Y1zFI3xSM8osKUklgzBH-45" value="1" style="edgeLabel;html=1;align=center;verticalAlign=middle;resizable=0;points=[];" parent="Y1zFI3xSM8osKUklgzBH-44" vertex="1" connectable="0">
          <mxGeometry x="0.1946" y="-6" relative="1" as="geometry">
            <mxPoint x="5" y="3" as="offset" />
          </mxGeometry>
        </mxCell>
        <mxCell id="Y1zFI3xSM8osKUklgzBH-46" value="" style="endArrow=classic;html=1;rounded=0;" parent="1" source="Y1zFI3xSM8osKUklgzBH-21" target="Y1zFI3xSM8osKUklgzBH-36" edge="1">
          <mxGeometry width="50" height="50" relative="1" as="geometry">
            <mxPoint x="730" y="171" as="sourcePoint" />
            <mxPoint x="770" y="159" as="targetPoint" />
          </mxGeometry>
        </mxCell>
        <mxCell id="Y1zFI3xSM8osKUklgzBH-47" value="1" style="edgeLabel;html=1;align=center;verticalAlign=middle;resizable=0;points=[];" parent="Y1zFI3xSM8osKUklgzBH-46" vertex="1" connectable="0">
          <mxGeometry x="-0.1162" y="-5" relative="1" as="geometry">
            <mxPoint x="17" y="9" as="offset" />
          </mxGeometry>
        </mxCell>
        <mxCell id="Y1zFI3xSM8osKUklgzBH-48" value="1" style="endArrow=classic;html=1;rounded=0;" parent="1" source="Y1zFI3xSM8osKUklgzBH-21" target="Y1zFI3xSM8osKUklgzBH-34" edge="1">
          <mxGeometry x="0.7067" y="11" width="50" height="50" relative="1" as="geometry">
            <mxPoint x="630" y="182" as="sourcePoint" />
            <mxPoint x="670" y="170" as="targetPoint" />
            <mxPoint as="offset" />
          </mxGeometry>
        </mxCell>
        <mxCell id="Y1zFI3xSM8osKUklgzBH-50" value="RESOLUTOR" style="swimlane;fontStyle=0;align=center;verticalAlign=top;childLayout=stackLayout;horizontal=1;startSize=26;horizontalStack=0;resizeParent=1;resizeLast=0;collapsible=1;marginBottom=0;rounded=0;shadow=0;strokeWidth=1;" parent="1" vertex="1">
          <mxGeometry x="-60" y="90" width="96" height="80" as="geometry">
            <mxRectangle x="550" y="140" width="160" height="26" as="alternateBounds" />
          </mxGeometry>
        </mxCell>
        <mxCell id="Y1zFI3xSM8osKUklgzBH-51" value="Tipo_Resolutor" style="text;align=left;verticalAlign=top;spacingLeft=4;spacingRight=4;overflow=hidden;rotatable=0;points=[[0,0.5],[1,0.5]];portConstraint=eastwest;" parent="Y1zFI3xSM8osKUklgzBH-50" vertex="1">
          <mxGeometry y="26" width="96" height="26" as="geometry" />
        </mxCell>
        <mxCell id="Y1zFI3xSM8osKUklgzBH-52" value="" style="line;html=1;strokeWidth=1;align=left;verticalAlign=middle;spacingTop=-1;spacingLeft=3;spacingRight=3;rotatable=0;labelPosition=right;points=[];portConstraint=eastwest;" parent="Y1zFI3xSM8osKUklgzBH-50" vertex="1">
          <mxGeometry y="52" width="96" height="10" as="geometry" />
        </mxCell>
        <mxCell id="Y1zFI3xSM8osKUklgzBH-53" value="AREA" style="swimlane;fontStyle=0;align=center;verticalAlign=top;childLayout=stackLayout;horizontal=1;startSize=26;horizontalStack=0;resizeParent=1;resizeLast=0;collapsible=1;marginBottom=0;rounded=0;shadow=0;strokeWidth=1;" parent="1" vertex="1">
          <mxGeometry x="-70" y="-104" width="90" height="90" as="geometry">
            <mxRectangle x="550" y="140" width="160" height="26" as="alternateBounds" />
          </mxGeometry>
        </mxCell>
        <mxCell id="Y1zFI3xSM8osKUklgzBH-54" value="Nro_Area&#xa;Nombre_Area&#xa;" style="text;align=left;verticalAlign=top;spacingLeft=4;spacingRight=4;overflow=hidden;rotatable=0;points=[[0,0.5],[1,0.5]];portConstraint=eastwest;" parent="Y1zFI3xSM8osKUklgzBH-53" vertex="1">
          <mxGeometry y="26" width="90" height="44" as="geometry" />
        </mxCell>
        <mxCell id="Y1zFI3xSM8osKUklgzBH-55" value="" style="line;html=1;strokeWidth=1;align=left;verticalAlign=middle;spacingTop=-1;spacingLeft=3;spacingRight=3;rotatable=0;labelPosition=right;points=[];portConstraint=eastwest;" parent="Y1zFI3xSM8osKUklgzBH-53" vertex="1">
          <mxGeometry y="70" width="90" height="8" as="geometry" />
        </mxCell>
        <mxCell id="Y1zFI3xSM8osKUklgzBH-60" value="EMPLEADO" style="swimlane;fontStyle=0;align=center;verticalAlign=top;childLayout=stackLayout;horizontal=1;startSize=26;horizontalStack=0;resizeParent=1;resizeLast=0;collapsible=1;marginBottom=0;rounded=0;shadow=0;strokeWidth=1;" parent="1" vertex="1">
          <mxGeometry x="60" y="-160" width="111" height="140" as="geometry">
            <mxRectangle x="550" y="140" width="160" height="26" as="alternateBounds" />
          </mxGeometry>
        </mxCell>
        <mxCell id="Y1zFI3xSM8osKUklgzBH-61" value="Legajo&#xa;Nombre&#xa;Apellido&#xa;Fecha_ingreso&#xa;Fecha_Egreso&#xa;Area" style="text;align=left;verticalAlign=top;spacingLeft=4;spacingRight=4;overflow=hidden;rotatable=0;points=[[0,0.5],[1,0.5]];portConstraint=eastwest;" parent="Y1zFI3xSM8osKUklgzBH-60" vertex="1">
          <mxGeometry y="26" width="111" height="94" as="geometry" />
        </mxCell>
        <mxCell id="Y1zFI3xSM8osKUklgzBH-62" value="" style="line;html=1;strokeWidth=1;align=left;verticalAlign=middle;spacingTop=-1;spacingLeft=3;spacingRight=3;rotatable=0;labelPosition=right;points=[];portConstraint=eastwest;" parent="Y1zFI3xSM8osKUklgzBH-60" vertex="1">
          <mxGeometry y="120" width="111" height="8" as="geometry" />
        </mxCell>
        <mxCell id="Y1zFI3xSM8osKUklgzBH-63" value="" style="endArrow=block;endSize=16;endFill=0;html=1;rounded=0;" parent="1" source="42WMQvsDHD2JbAyiWGdz-17" target="Y1zFI3xSM8osKUklgzBH-60" edge="1">
          <mxGeometry width="160" relative="1" as="geometry">
            <mxPoint x="143.4187817258885" y="20" as="sourcePoint" />
            <mxPoint x="429" y="100" as="targetPoint" />
          </mxGeometry>
        </mxCell>
        <mxCell id="Y1zFI3xSM8osKUklgzBH-64" value="1" style="html=1;verticalAlign=bottom;endArrow=block;curved=0;rounded=0;exitX=0.008;exitY=0.894;exitDx=0;exitDy=0;exitPerimeter=0;" parent="1" source="Y1zFI3xSM8osKUklgzBH-61" target="Y1zFI3xSM8osKUklgzBH-53" edge="1">
          <mxGeometry width="80" relative="1" as="geometry">
            <mxPoint x="619" y="-24" as="sourcePoint" />
            <mxPoint x="689" y="-54" as="targetPoint" />
          </mxGeometry>
        </mxCell>
        <mxCell id="Y1zFI3xSM8osKUklgzBH-65" value="" style="endArrow=block;endSize=16;endFill=0;html=1;rounded=0;" parent="1" source="Y1zFI3xSM8osKUklgzBH-50" target="42WMQvsDHD2JbAyiWGdz-17" edge="1">
          <mxGeometry width="160" relative="1" as="geometry">
            <mxPoint x="167.78571428571422" y="270" as="sourcePoint" />
            <mxPoint x="110" y="101.13239436619733" as="targetPoint" />
            <Array as="points" />
          </mxGeometry>
        </mxCell>
        <mxCell id="42WMQvsDHD2JbAyiWGdz-1" value="INCIDENTE" style="swimlane;fontStyle=2;align=center;verticalAlign=top;childLayout=stackLayout;horizontal=1;startSize=26;horizontalStack=0;resizeParent=1;resizeLast=0;collapsible=1;marginBottom=0;rounded=0;shadow=0;strokeWidth=1;" vertex="1" parent="1">
          <mxGeometry x="324" y="-160" width="180" height="290" as="geometry">
            <mxRectangle x="230" y="140" width="160" height="26" as="alternateBounds" />
          </mxGeometry>
        </mxCell>
        <mxCell id="42WMQvsDHD2JbAyiWGdz-2" value="Nro_Incidente&#xa;Fecha&#xa;Usuario&#xa;TioProblema&#xa;Prioridad&#xa;Estado&#xa;Solucion&#xa;Anexo&#xa;" style="text;align=left;verticalAlign=top;spacingLeft=4;spacingRight=4;overflow=hidden;rotatable=0;points=[[0,0.5],[1,0.5]];portConstraint=eastwest;" vertex="1" parent="42WMQvsDHD2JbAyiWGdz-1">
          <mxGeometry y="26" width="180" height="114" as="geometry" />
        </mxCell>
        <mxCell id="42WMQvsDHD2JbAyiWGdz-3" value="" style="line;html=1;strokeWidth=1;align=left;verticalAlign=middle;spacingTop=-1;spacingLeft=3;spacingRight=3;rotatable=0;labelPosition=right;points=[];portConstraint=eastwest;" vertex="1" parent="42WMQvsDHD2JbAyiWGdz-1">
          <mxGeometry y="140" width="180" height="10" as="geometry" />
        </mxCell>
        <mxCell id="42WMQvsDHD2JbAyiWGdz-4" value="Crear_Incidente1();&#xa;Insertar_Incidente();&#xa;Cancelar_Incidente();&#xa;Buscar_Soluciones();&#xa;Buscar_Inc_Usuario_Abiertos();&#xa;Listar_Inc_Area();&#xa;VincularSolucion();&#xa;Resolver_Incidente();&#xa;Modificar_Incidente();Â &#xa;" style="text;align=left;verticalAlign=top;spacingLeft=4;spacingRight=4;overflow=hidden;rotatable=0;points=[[0,0.5],[1,0.5]];portConstraint=eastwest;" vertex="1" parent="42WMQvsDHD2JbAyiWGdz-1">
          <mxGeometry y="150" width="180" height="130" as="geometry" />
        </mxCell>
        <mxCell id="42WMQvsDHD2JbAyiWGdz-5" value="SOLUCION" style="swimlane;fontStyle=0;align=center;verticalAlign=top;childLayout=stackLayout;horizontal=1;startSize=30;horizontalStack=0;resizeParent=1;resizeLast=0;collapsible=1;marginBottom=0;rounded=0;shadow=0;strokeWidth=1;" vertex="1" parent="1">
          <mxGeometry x="120" y="320" width="130" height="210" as="geometry">
            <mxRectangle x="550" y="140" width="160" height="26" as="alternateBounds" />
          </mxGeometry>
        </mxCell>
        <mxCell id="42WMQvsDHD2JbAyiWGdz-6" value="Nro_Solucion&#xa;Descripcion_Corta&#xa;Descripcion_Larga&#xa;Error&#xa;Fecha&#xa;Resolutor&#xa;" style="text;align=left;verticalAlign=top;spacingLeft=4;spacingRight=4;overflow=hidden;rotatable=0;points=[[0,0.5],[1,0.5]];portConstraint=eastwest;" vertex="1" parent="42WMQvsDHD2JbAyiWGdz-5">
          <mxGeometry y="30" width="130" height="104" as="geometry" />
        </mxCell>
        <mxCell id="42WMQvsDHD2JbAyiWGdz-7" value="" style="line;html=1;strokeWidth=1;align=left;verticalAlign=middle;spacingTop=-1;spacingLeft=3;spacingRight=3;rotatable=0;labelPosition=right;points=[];portConstraint=eastwest;" vertex="1" parent="42WMQvsDHD2JbAyiWGdz-5">
          <mxGeometry y="134" width="130" height="8" as="geometry" />
        </mxCell>
        <mxCell id="42WMQvsDHD2JbAyiWGdz-8" value="Obtener_Soluciones();&#xa;Listar_Soluciones();&#xa;Crear_Solucion();&#xa;&#xa;" style="text;align=left;verticalAlign=top;spacingLeft=4;spacingRight=4;overflow=hidden;rotatable=0;points=[[0,0.5],[1,0.5]];portConstraint=eastwest;" vertex="1" parent="42WMQvsDHD2JbAyiWGdz-5">
          <mxGeometry y="142" width="130" height="68" as="geometry" />
        </mxCell>
        <mxCell id="42WMQvsDHD2JbAyiWGdz-9" value="TIPO_USUARIO" style="swimlane;fontStyle=0;align=center;verticalAlign=top;childLayout=stackLayout;horizontal=1;startSize=26;horizontalStack=0;resizeParent=1;resizeLast=0;collapsible=1;marginBottom=0;rounded=0;shadow=0;strokeWidth=1;" vertex="1" parent="1">
          <mxGeometry x="324" y="310" width="180" height="124" as="geometry">
            <mxRectangle x="550" y="140" width="160" height="26" as="alternateBounds" />
          </mxGeometry>
        </mxCell>
        <mxCell id="42WMQvsDHD2JbAyiWGdz-10" value="Path&#xa;Permisos&#xa;Prerequisitos" style="text;align=left;verticalAlign=top;spacingLeft=4;spacingRight=4;overflow=hidden;rotatable=0;points=[[0,0.5],[1,0.5]];portConstraint=eastwest;" vertex="1" parent="42WMQvsDHD2JbAyiWGdz-9">
          <mxGeometry y="26" width="180" height="54" as="geometry" />
        </mxCell>
        <mxCell id="42WMQvsDHD2JbAyiWGdz-11" value="" style="line;html=1;strokeWidth=1;align=left;verticalAlign=middle;spacingTop=-1;spacingLeft=3;spacingRight=3;rotatable=0;labelPosition=right;points=[];portConstraint=eastwest;" vertex="1" parent="42WMQvsDHD2JbAyiWGdz-9">
          <mxGeometry y="80" width="180" height="10" as="geometry" />
        </mxCell>
        <mxCell id="42WMQvsDHD2JbAyiWGdz-12" value="Listar_Soluciones_Usuario();" style="text;align=left;verticalAlign=top;spacingLeft=4;spacingRight=4;overflow=hidden;rotatable=0;points=[[0,0.5],[1,0.5]];portConstraint=eastwest;" vertex="1" parent="42WMQvsDHD2JbAyiWGdz-9">
          <mxGeometry y="90" width="180" height="34" as="geometry" />
        </mxCell>
        <mxCell id="42WMQvsDHD2JbAyiWGdz-13" value="TIPO_TECNICA" style="swimlane;fontStyle=0;align=center;verticalAlign=top;childLayout=stackLayout;horizontal=1;startSize=26;horizontalStack=0;resizeParent=1;resizeLast=0;collapsible=1;marginBottom=0;rounded=0;shadow=0;strokeWidth=1;" vertex="1" parent="1">
          <mxGeometry x="324" y="440" width="180" height="134" as="geometry">
            <mxRectangle x="550" y="140" width="160" height="26" as="alternateBounds" />
          </mxGeometry>
        </mxCell>
        <mxCell id="42WMQvsDHD2JbAyiWGdz-14" value="InformaciÃ³n_Tecnica&#xa;Script&#xa;Herramienta&#xa;Prerequisitos" style="text;align=left;verticalAlign=top;spacingLeft=4;spacingRight=4;overflow=hidden;rotatable=0;points=[[0,0.5],[1,0.5]];portConstraint=eastwest;" vertex="1" parent="42WMQvsDHD2JbAyiWGdz-13">
          <mxGeometry y="26" width="180" height="64" as="geometry" />
        </mxCell>
        <mxCell id="42WMQvsDHD2JbAyiWGdz-15" value="" style="line;html=1;strokeWidth=1;align=left;verticalAlign=middle;spacingTop=-1;spacingLeft=3;spacingRight=3;rotatable=0;labelPosition=right;points=[];portConstraint=eastwest;" vertex="1" parent="42WMQvsDHD2JbAyiWGdz-13">
          <mxGeometry y="90" width="180" height="10" as="geometry" />
        </mxCell>
        <mxCell id="42WMQvsDHD2JbAyiWGdz-16" value="Listar_Soluciones_Tecnicas();" style="text;align=left;verticalAlign=top;spacingLeft=4;spacingRight=4;overflow=hidden;rotatable=0;points=[[0,0.5],[1,0.5]];portConstraint=eastwest;" vertex="1" parent="42WMQvsDHD2JbAyiWGdz-13">
          <mxGeometry y="100" width="180" height="34" as="geometry" />
        </mxCell>
        <mxCell id="42WMQvsDHD2JbAyiWGdz-17" value="USUARIO" style="swimlane;fontStyle=0;align=center;verticalAlign=top;childLayout=stackLayout;horizontal=1;startSize=26;horizontalStack=0;resizeParent=1;resizeLast=0;collapsible=1;marginBottom=0;rounded=0;shadow=0;strokeWidth=1;" vertex="1" parent="1">
          <mxGeometry x="90" y="15" width="150" height="230" as="geometry">
            <mxRectangle x="550" y="140" width="160" height="26" as="alternateBounds" />
          </mxGeometry>
        </mxCell>
        <mxCell id="42WMQvsDHD2JbAyiWGdz-18" value="Usuario&#xa;Nombre&#xa;Clave&#xa;Activo&#xa;Mail&#xa;" style="text;align=left;verticalAlign=top;spacingLeft=4;spacingRight=4;overflow=hidden;rotatable=0;points=[[0,0.5],[1,0.5]];portConstraint=eastwest;" vertex="1" parent="42WMQvsDHD2JbAyiWGdz-17">
          <mxGeometry y="26" width="150" height="84" as="geometry" />
        </mxCell>
        <mxCell id="42WMQvsDHD2JbAyiWGdz-19" value="" style="line;html=1;strokeWidth=1;align=left;verticalAlign=middle;spacingTop=-1;spacingLeft=3;spacingRight=3;rotatable=0;labelPosition=right;points=[];portConstraint=eastwest;" vertex="1" parent="42WMQvsDHD2JbAyiWGdz-17">
          <mxGeometry y="110" width="150" height="10" as="geometry" />
        </mxCell>
        <mxCell id="42WMQvsDHD2JbAyiWGdz-20" value="Solicitar_Datos_loguin()&#xa;Validar_Datos();&#xa;Validar_Usuario();&#xa;Obtener_Tipo_Usuario&#xa;Obtener_Area_Usuario();&#xa;Crear(.);&#xa;Modificar(.);Â &#xa;" style="text;align=left;verticalAlign=top;spacingLeft=4;spacingRight=4;overflow=hidden;rotatable=0;points=[[0,0.5],[1,0.5]];portConstraint=eastwest;rounded=0;shadow=0;html=0;" vertex="1" parent="42WMQvsDHD2JbAyiWGdz-17">
          <mxGeometry y="120" width="150" height="100" as="geometry" />
        </mxCell>
        <mxCell id="42WMQvsDHD2JbAyiWGdz-21" style="edgeStyle=orthogonalEdgeStyle;rounded=0;orthogonalLoop=1;jettySize=auto;html=1;exitX=0.5;exitY=0;exitDx=0;exitDy=0;entryX=0;entryY=0;entryDx=70;entryDy=0;entryPerimeter=0;" edge="1" parent="1" source="ro6CvCbOvFzQMxiDiREt-7" target="ro6CvCbOvFzQMxiDiREt-3">
          <mxGeometry relative="1" as="geometry" />
        </mxCell>
      </root>
    </mxGraphModel>
  </diagram>
</mxfile>
